<svg xmlns="http://www.w3.org/2000/svg" xmlns:xlink="http://www.w3.org/1999/xlink" width="1080" zoomAndPan="magnify" viewBox="0 0 810 1012.49997" height="1350" preserveAspectRatio="xMidYMid meet" version="1.2"><g id="7724a80491"><path style=" stroke:none;fill-rule:nonzero;fill:#e60066;fill-opacity:1;" d="M 540.398438 423.230469 C 580.132812 437.320312 610.972656 459.355469 639.34375 490.367188 C 661.296875 518.21875 675.984375 546.472656 682.96875 581.34375 C 689.390625 626.09375 683.640625 658.382812 666.957031 700.242188 C 651.429688 733.460938 634.226562 758.742188 604.730469 780.949219 C 564.273438 806.679688 528.832031 819.109375 480.984375 823.53125 C 443.304688 820.285156 408.972656 812.5 376.757812 792.058594 C 364.332031 782.816406 352.246094 773.152344 340.492188 763.066406 L 340.492188 789.039062 L 295.015625 795.53125 L 295.015625 808.519531 C 269.839844 814.199219 269.839844 814.199219 253.796875 814.453125 C 236.542969 808.519531 236.542969 808.519531 227.714844 800.011719 C 209.28125 777.429688 193.652344 752.996094 178.332031 728.234375 C 171.144531 716.597656 171.144531 716.597656 159.945312 702.503906 L 152.085938 691.644531 L 152.085938 678.660156 L 139.089844 678.660156 L 139.089844 808.519531 L 80.621094 808.519531 L 74.125 802.023438 C 73.527344 792.484375 73.246094 782.9375 73.277344 773.378906 L 73.21875 754.925781 L 73.257812 734.863281 L 73.238281 714.410156 C 73.238281 700.113281 73.253906 685.8125 73.277344 671.511719 C 73.304688 649.535156 73.289062 627.5625 73.234375 605.589844 C 73.234375 591.734375 73.242188 577.878906 73.257812 564.023438 L 73.21875 543.957031 L 73.285156 525.503906 L 73.296875 509.183594 L 74.125 496.859375 L 80.621094 490.367188 C 98.292969 489.535156 115.730469 489.164062 133.40625 489.152344 L 148.128906 488.90625 C 180.078125 488.828125 206.234375 493.191406 236.542969 503.351562 L 243.039062 496.859375 C 255.082031 496.519531 267.128906 496.25 279.179688 496.046875 C 301.6875 494.425781 316.542969 493.332031 335.445312 480.757812 C 343.753906 472.757812 351.992188 464.683594 360.15625 456.539062 C 408.6875 412.542969 479.074219 408.621094 540.398438 423.230469 M 431.445312 464.394531 C 404.808594 486.871094 388.429688 511.417969 372.976562 542.308594 C 372.519531 554.476562 372.429688 566.65625 372.574219 578.832031 L 372.75 598.570312 L 372.976562 613.730469 L 385.96875 620.222656 L 398.960938 594.253906 L 398.960938 613.730469 L 424.949219 620.222656 L 426.574219 635.242188 C 430.054688 653.226562 430.054688 653.226562 443.226562 664.460938 C 458.539062 674.230469 458.539062 674.230469 483.421875 672.167969 L 483.421875 659.179688 L 504.945312 656.746094 C 529.371094 654.28125 529.371094 654.28125 548.390625 639.703125 L 567.878906 639.703125 C 582.550781 621.054688 582.550781 621.054688 582.90625 598.3125 C 582.191406 575.054688 582.191406 575.054688 572.753906 556.515625 C 562.390625 542.167969 562.390625 542.167969 549.609375 534.191406 C 532.0625 528.179688 514.761719 525.332031 496.414062 522.832031 L 496.414062 503.351562 L 511.03125 507.820312 L 528.898438 509.84375 C 542.523438 501.125 542.523438 501.125 554.886719 490.367188 C 571.355469 484.878906 582.769531 483.875 600.363281 483.875 C 582.554688 467.691406 568.308594 458.058594 545.550781 449.785156 C 502.671875 440.761719 470.246094 444.285156 431.445312 464.394531 M 554.886719 496.859375 L 574.375 522.832031 L 587.371094 516.335938 C 578.4375 506.324219 578.4375 506.324219 567.878906 496.859375 Z M 587.371094 522.832031 L 593.867188 535.816406 Z M 130.15625 539.875 C 118.308594 554.957031 118.308594 554.957031 115.949219 574.773438 L 119.601562 594.253906 C 132.660156 611.074219 132.660156 611.074219 152.085938 620.222656 C 172.484375 621.335938 172.484375 621.335938 191.066406 613.730469 C 203.992188 602.992188 203.992188 602.992188 210.554688 587.757812 C 214.34375 571.527344 214.34375 571.527344 210.554688 555.296875 C 200.679688 539.472656 200.679688 539.472656 184.570312 529.324219 C 160.710938 525.351562 150.214844 526.160156 130.15625 539.875 M 600.363281 542.308594 L 606.859375 561.789062 Z M 249.535156 639.703125 C 237.941406 646.859375 237.941406 646.859375 225.984375 655.933594 L 213.550781 665.0625 L 204.058594 672.167969 C 214.589844 695.316406 228.488281 714.957031 243.449219 735.472656 L 257.480469 754.847656 L 269.027344 769.5625 L 275.523438 769.5625 C 270.996094 704.417969 270.996094 704.417969 262.53125 639.703125 Z M 249.535156 639.703125 "/><path style=" stroke:none;fill-rule:nonzero;fill:#8bce02;fill-opacity:1;" d="M 80.621094 490.367188 C 98.292969 489.535156 115.730469 489.164062 133.40625 489.152344 L 148.128906 488.90625 C 180.078125 488.828125 206.234375 493.191406 236.542969 503.351562 L 243.039062 496.859375 C 260.839844 493.652344 277.050781 490.851562 295.015625 490.367188 C 311.257812 496.457031 311.257812 496.457031 321 503.351562 L 314.425781 512.988281 C 305.238281 536.363281 307.519531 558.320312 309.230469 582.890625 L 310.191406 598.445312 C 313.894531 649.957031 323.46875 699.582031 333.996094 750.082031 C 336.230469 763.054688 338.414062 776.039062 340.492188 789.039062 L 295.015625 795.53125 L 295.015625 808.519531 C 269.839844 814.199219 269.839844 814.199219 253.796875 814.453125 C 236.542969 808.519531 236.542969 808.519531 227.714844 800.011719 C 209.28125 777.429688 193.652344 752.996094 178.332031 728.234375 C 171.144531 716.597656 171.144531 716.597656 159.945312 702.503906 L 152.085938 691.644531 L 152.085938 678.660156 L 139.089844 678.660156 L 139.089844 808.519531 L 80.621094 808.519531 L 74.125 802.023438 C 73.527344 792.484375 73.246094 782.9375 73.277344 773.378906 L 73.21875 754.925781 L 73.257812 734.863281 L 73.238281 714.410156 C 73.238281 700.113281 73.253906 685.8125 73.277344 671.511719 C 73.300781 649.535156 73.285156 627.5625 73.234375 605.589844 C 73.234375 591.734375 73.242188 577.878906 73.257812 564.023438 L 73.21875 543.957031 L 73.285156 525.503906 L 73.296875 509.183594 L 74.125 496.859375 Z M 130.15625 539.875 C 118.308594 554.957031 118.308594 554.957031 115.949219 574.773438 L 119.601562 594.253906 C 132.660156 611.074219 132.660156 611.074219 152.085938 620.222656 C 172.484375 621.335938 172.484375 621.335938 191.066406 613.730469 C 203.992188 602.992188 203.992188 602.992188 210.554688 587.757812 C 214.34375 571.527344 214.34375 571.527344 210.554688 555.296875 C 200.679688 539.472656 200.679688 539.472656 184.570312 529.324219 C 160.710938 525.351562 150.214844 526.160156 130.15625 539.875 M 249.535156 639.703125 C 237.941406 646.859375 237.941406 646.859375 225.984375 655.933594 L 213.550781 665.0625 L 204.058594 672.167969 C 214.589844 695.316406 228.488281 714.957031 243.449219 735.472656 L 257.480469 754.847656 L 269.027344 769.5625 L 275.523438 769.5625 C 270.996094 704.417969 270.996094 704.417969 262.53125 639.703125 Z M 249.535156 639.703125 "/><path style=" stroke:none;fill-rule:nonzero;fill:#080136;fill-opacity:1;" d="M 398.960938 120.269531 C 420.890625 116.210938 420.890625 116.210938 444.441406 120.269531 C 463.117188 133.664062 463.117188 133.664062 476.925781 152.734375 C 483.832031 175.058594 483.832031 175.058594 483.421875 198.183594 C 470.558594 222.515625 460.878906 234.851562 437.945312 250.128906 L 437.945312 263.113281 C 448.011719 273.300781 448.011719 273.300781 461.089844 283.8125 C 479.796875 299.773438 498.1875 315.855469 515.90625 332.914062 L 527.273438 343.769531 L 535.394531 354.015625 L 535.394531 373.492188 L 515.90625 379.988281 C 486.714844 359.4375 464.683594 334.414062 441.925781 307.070312 C 430.972656 294.132812 430.972656 294.132812 411.957031 282.59375 L 412.410156 293.78125 C 413.203125 327.5625 409.859375 354.488281 398.960938 386.480469 L 372.976562 373.492188 C 373.425781 342.648438 373.992188 311.800781 374.679688 280.957031 C 374.898438 270.46875 375.082031 259.984375 375.222656 249.503906 C 375.445312 234.394531 375.78125 219.300781 376.144531 204.199219 L 376.277344 190.070312 C 376.894531 168.832031 379.34375 153.027344 388.054688 133.542969 Z M 424.949219 146.242188 L 411.957031 159.226562 C 410.378906 175.070312 410.378906 175.070312 411.144531 192.503906 L 411.5 210.410156 L 411.957031 224.15625 C 424.625 218.910156 424.625 218.910156 437.945312 211.171875 L 450.9375 191.691406 C 452.023438 174.648438 452.023438 174.648438 450.9375 159.226562 Z M 256.035156 55.339844 L 249.535156 87.804688 L 238.34375 88.539062 C 203.511719 91.507812 176.988281 98.421875 145.589844 113.777344 L 139.089844 211.171875 L 165.078125 204.679688 C 180.234375 204.425781 195.398438 204.386719 210.554688 204.679688 C 206.09375 216.851562 206.09375 216.851562 197.5625 230.648438 C 175.914062 242.039062 164.085938 243.636719 139.089844 243.636719 L 139.546875 268.515625 C 139.671875 279.292969 139.789062 290.074219 139.902344 300.851562 C 140.011719 306.265625 140.125 311.675781 140.226562 317.253906 L 140.359375 333.042969 L 140.566406 347.566406 C 139.089844 360.507812 139.089844 360.507812 126.097656 379.988281 L 106.605469 373.492188 C 95.433594 351.160156 100.421875 324.019531 101.507812 299.382812 C 102.027344 284.734375 102.027344 284.734375 100.109375 263.113281 C 91.3125 247.304688 91.3125 247.304688 80.621094 237.144531 L 90.214844 230.246094 L 100.109375 217.664062 C 103.214844 196.074219 103.214844 196.074219 102.546875 172.214844 L 102.695312 147.867188 L 100.109375 126.761719 C 90.753906 115.445312 90.753906 115.445312 80.621094 107.285156 L 80.621094 87.804688 C 98.347656 82.515625 116.078125 77.242188 133.816406 71.984375 L 148.953125 67.449219 C 220.621094 46.238281 220.621094 46.238281 256.035156 55.339844 M 282.019531 120.269531 L 308.007812 126.761719 L 311.125 139.46875 C 319.136719 171.792969 327.277344 204.046875 336.023438 236.183594 L 340.492188 252.695312 C 343.4375 263.5625 346.414062 274.417969 349.425781 285.261719 C 356.335938 310.910156 361.988281 333.671875 359.980469 360.507812 L 333.996094 367 C 318.027344 343.0625 314.425781 323.519531 308.007812 295.578125 L 262.53125 302.070312 L 236.542969 386.480469 L 210.554688 386.480469 L 204.058594 367 C 208.308594 348.445312 214.023438 330.589844 219.691406 312.421875 L 223.550781 295.578125 L 217.050781 276.101562 L 226.160156 268.140625 C 238.019531 254.984375 241.703125 245.070312 246.742188 228.1875 L 251.796875 211.695312 L 256.84375 194.535156 C 260.242188 183.296875 263.640625 172.058594 267.046875 160.824219 L 271.515625 145.75 C 275.523438 133.257812 275.523438 133.257812 282.019531 120.269531 M 282.019531 211.171875 L 269.027344 263.113281 L 301.511719 263.113281 L 295.015625 211.171875 Z M 282.019531 211.171875 "/><path style=" stroke:none;fill-rule:nonzero;fill:#28aaff;fill-opacity:1;" d="M 321 496.859375 L 314.425781 509.714844 C 306.207031 534.808594 307.410156 557.367188 309.230469 583.292969 L 310.191406 598.757812 C 313.898438 650.15625 323.503906 699.695312 333.996094 750.082031 C 336.230469 763.054688 338.414062 776.039062 340.492188 789.039062 L 288.515625 802.023438 C 274.800781 781.460938 273.054688 772.308594 270.449219 748.328125 L 268.109375 727.714844 L 265.777344 705.847656 L 260.757812 661.617188 L 258.328125 640.035156 C 251.738281 576.667969 251.738281 576.667969 239.03125 514.433594 L 236.542969 503.351562 L 243.039062 496.859375 C 271.046875 491.476562 293.359375 489.328125 321 496.859375 "/><path style=" stroke:none;fill-rule:nonzero;fill:#080136;fill-opacity:1;" d="M 567.878906 152.734375 C 597.230469 156.746094 621.886719 169.058594 645.839844 186.011719 C 658.277344 203.878906 662.136719 212.675781 665.742188 233.492188 C 666.648438 248.757812 666.648438 248.757812 665.332031 263.113281 C 654.371094 284.625 654.371094 284.625 639.34375 302.070312 L 627.976562 317.089844 C 613.355469 328.042969 613.355469 328.042969 588.589844 335.347656 C 575.039062 336.4375 575.039062 336.4375 561.382812 334.535156 C 542.410156 324.542969 529.042969 312.460938 515.90625 295.578125 C 508.832031 276.449219 508.402344 264.003906 511.136719 243.992188 C 517.433594 213.347656 528.867188 190.554688 548.390625 165.722656 Z M 593.867188 204.679688 L 574.375 217.664062 L 554.886719 217.664062 C 546.925781 231.511719 546.925781 231.511719 546.765625 252.5625 C 546.539062 275.839844 546.539062 275.839844 558.132812 291.929688 L 567.878906 302.070312 C 583.289062 301.824219 583.289062 301.824219 600.363281 295.578125 C 616.851562 278.984375 616.851562 278.984375 626.351562 256.621094 C 625.488281 232.078125 625.488281 232.078125 619.855469 211.171875 C 607.855469 206.679688 607.855469 206.679688 593.867188 204.679688 "/><path style=" stroke:none;fill-rule:nonzero;fill:#28aaff;fill-opacity:1;" d="M 269.027344 574.773438 L 282.019531 574.773438 L 283.949219 594.253906 C 290.542969 655.644531 290.542969 655.644531 314.375 712.085938 C 326.542969 734.175781 333.148438 758.523438 340.492188 782.546875 L 327.5 795.53125 C 314.582031 798.117188 301.574219 800.324219 288.515625 802.023438 C 268.332031 771.769531 268.402344 738.628906 264.15625 703.007812 L 261.183594 680.964844 C 256.417969 641.78125 254.277344 611.726562 269.027344 574.773438 "/><path style=" stroke:none;fill-rule:nonzero;fill:#e60066;fill-opacity:1;" d="M 496.414062 496.859375 C 509.460938 498.683594 522.46875 500.820312 535.394531 503.351562 L 535.394531 522.832031 L 567.878906 522.832031 C 582.820312 548.503906 593.308594 569.222656 596.304688 599.121094 C 593.964844 619.378906 591.664062 629.339844 580.871094 646.195312 C 562.683594 658.304688 543.347656 666.03125 522.402344 672.167969 C 499.261719 670.542969 499.261719 670.542969 483.421875 665.675781 L 483.421875 659.179688 L 504.535156 653.5 C 523.128906 647.921875 537.898438 642.007812 554.886719 633.210938 L 567.878906 633.210938 C 577.722656 613.535156 575.480469 596.519531 574.375 574.773438 C 570.84375 557.308594 570.84375 557.308594 561.382812 542.308594 C 544.335938 535.570312 544.335938 535.570312 524.839844 533.789062 L 505.089844 531.023438 L 489.917969 529.324219 L 496.414062 509.84375 L 483.421875 503.351562 Z M 496.414062 496.859375 "/><path style=" stroke:none;fill-rule:nonzero;fill:#8bce02;fill-opacity:1;" d="M 80.621094 490.367188 C 98.6875 489.714844 116.558594 489.464844 134.628906 489.554688 L 149.835938 489.476562 L 164.597656 489.503906 L 178.078125 489.527344 C 191.734375 490.410156 203.902344 493.15625 217.050781 496.859375 L 217.050781 509.84375 C 184.570312 516.335938 184.570312 516.335938 80.621094 503.351562 L 80.621094 802.023438 L 74.125 802.023438 C 73.964844 758.6875 73.84375 715.34375 73.765625 672 C 73.730469 657.246094 73.6875 642.492188 73.636719 627.730469 C 73.5625 606.570312 73.511719 585.410156 73.488281 564.25 L 73.390625 544.121094 L 73.390625 525.609375 L 73.34375 509.226562 L 74.125 496.859375 Z M 80.621094 490.367188 "/><path style=" stroke:none;fill-rule:nonzero;fill:#28aaff;fill-opacity:1;" d="M 295.015625 399.464844 C 305.980469 414.074219 305.980469 414.074219 314.503906 431.929688 C 313.5625 444.914062 313.5625 444.914062 308.007812 457.902344 C 295.273438 467.535156 295.273438 467.535156 279.585938 475.757812 L 264.003906 484.179688 C 249.535156 490.367188 249.535156 490.367188 230.046875 490.367188 C 223.148438 479.003906 223.148438 479.003906 217.050781 464.394531 C 218.117188 451.816406 218.117188 451.816406 223.550781 438.421875 C 236.515625 427.367188 236.515625 427.367188 252.382812 417.320312 L 268.1875 407.074219 C 282.019531 399.464844 282.019531 399.464844 295.015625 399.464844 M 282.019531 412.453125 L 249.535156 431.929688 L 256.035156 457.902344 C 269.15625 453.992188 282.15625 449.636719 295.015625 444.914062 L 301.511719 431.929688 Z M 282.019531 412.453125 "/><path style=" stroke:none;fill-rule:nonzero;fill:#8bce02;fill-opacity:1;" d="M 217.050781 542.308594 L 243.039062 594.253906 L 249.535156 561.789062 L 256.035156 561.789062 C 259.5625 581.300781 262.199219 600.382812 262.53125 620.222656 C 254.820312 639.300781 254.820312 639.300781 243.039062 652.6875 C 228.832031 661.214844 228.832031 661.214844 217.050781 665.675781 L 210.554688 633.210938 L 230.046875 633.210938 L 223.550781 600.746094 L 217.050781 613.730469 L 191.066406 607.238281 L 204.058594 587.757812 C 208.660156 572.691406 213.023438 557.542969 217.050781 542.308594 "/><path style=" stroke:none;fill-rule:nonzero;fill:#7e3ee5;fill-opacity:1;" d="M 295.015625 542.308594 L 301.511719 542.308594 L 304.121094 564.351562 L 307.597656 593.039062 L 309.3125 607.554688 C 311.789062 627.800781 314.53125 646.265625 321 665.675781 C 321.4375 675.808594 321.554688 685.964844 321.410156 696.113281 L 321.230469 712.015625 L 321 724.109375 C 308.980469 713.734375 301.433594 704.488281 293.871094 690.453125 C 286.9375 666.773438 286.875 644.246094 287.300781 619.816406 L 287.308594 605.90625 C 287.503906 583.851562 288.167969 563.390625 295.015625 542.308594 "/><path style=" stroke:none;fill-rule:nonzero;fill:#28aaff;fill-opacity:1;" d="M 275.523438 711.125 L 295.015625 711.125 L 295.015625 730.601562 L 314.503906 730.601562 C 324.925781 753.378906 328.925781 770.496094 327.5 795.53125 L 301.511719 795.53125 C 290.421875 787.898438 290.421875 787.898438 282.019531 776.054688 C 278.695312 759.953125 278.695312 759.953125 277.558594 742.375 L 276.257812 724.644531 Z M 275.523438 711.125 "/><path style=" stroke:none;fill-rule:nonzero;fill:#e60066;fill-opacity:1;" d="M 554.886719 477.378906 C 573.933594 478.003906 588.84375 478.59375 606.859375 483.875 C 623.101562 500.515625 623.101562 500.515625 632.847656 516.335938 L 626.351562 529.324219 L 619.855469 522.832031 L 606.859375 548.800781 L 599.019531 539.542969 L 588.585938 527.296875 L 578.308594 515.195312 C 568.730469 504.375 558.757812 493.9375 548.390625 483.875 Z M 554.886719 477.378906 "/><path style=" stroke:none;fill-rule:nonzero;fill:#1d075a;fill-opacity:1;" d="M 165.078125 399.464844 L 167.515625 421.789062 L 171.574219 444.914062 L 184.570312 451.410156 L 171.574219 464.394531 C 153.9375 466.523438 137.453125 465.238281 119.601562 464.394531 L 113.105469 457.902344 C 112.1875 440.566406 112.832031 423.332031 113.105469 405.957031 C 132.125 399.621094 145.300781 398.933594 165.078125 399.464844 M 145.589844 405.957031 L 126.097656 425.4375 L 145.589844 425.4375 L 145.589844 438.421875 L 126.097656 438.421875 L 126.097656 457.902344 L 152.085938 457.902344 L 158.582031 412.453125 Z M 145.589844 405.957031 "/><path style=" stroke:none;fill-rule:nonzero;fill:#28aaff;fill-opacity:1;" d="M 288.515625 672.167969 C 337.101562 745 337.101562 745 340.492188 789.039062 L 327.5 789.039062 L 314.503906 730.601562 L 295.015625 730.601562 L 295.015625 711.125 L 275.523438 711.125 L 275.523438 691.644531 L 288.515625 691.644531 Z M 288.515625 672.167969 "/><path style=" stroke:none;fill-rule:nonzero;fill:#e60066;fill-opacity:1;" d="M 340.492188 470.886719 C 340.492188 488.25 338.191406 499.792969 333.996094 516.335938 C 332.613281 526.597656 331.394531 536.875 330.34375 547.179688 L 328.695312 562.90625 L 327.5 574.773438 C 317.929688 566.175781 317.929688 566.175781 308.007812 555.296875 C 305.167969 537.035156 305.167969 537.035156 308.007812 516.335938 C 317.753906 499.683594 326.796875 484.574219 340.492188 470.886719 M 535.394531 496.859375 C 546.363281 498.078125 546.363281 498.078125 561.382812 503.351562 C 591.585938 529.324219 591.585938 529.324219 599.148438 550.835938 L 600.363281 561.789062 L 574.375 555.296875 L 567.878906 522.832031 L 535.394531 522.832031 Z M 535.394531 496.859375 "/><path style=" stroke:none;fill-rule:nonzero;fill:#1d075a;fill-opacity:1;" d="M 74.125 399.464844 L 106.605469 412.453125 L 100.109375 457.902344 L 74.125 464.394531 Z M 87.117188 418.945312 L 93.613281 444.914062 L 93.613281 418.945312 Z M 87.117188 418.945312 "/><path style=" stroke:none;fill-rule:nonzero;fill:#e60066;fill-opacity:1;" d="M 366.480469 561.789062 L 372.976562 561.789062 L 379.472656 613.730469 L 405.460938 581.265625 L 405.460938 646.195312 C 394.480469 642.242188 383.652344 637.914062 372.976562 633.210938 C 365.160156 617.59375 365.828125 607.5625 366.074219 590.195312 L 366.25 574.113281 Z M 366.480469 561.789062 "/><path style=" stroke:none;fill-rule:nonzero;fill:#28aaff;fill-opacity:1;" d="M 269.027344 574.773438 L 282.019531 574.773438 L 282.019531 646.195312 L 269.027344 646.195312 L 262.53125 659.179688 C 256.515625 634.523438 256.066406 620.09375 262.128906 595.0625 Z M 269.027344 574.773438 "/><path style=" stroke:none;fill-rule:nonzero;fill:#4764ee;fill-opacity:1;" d="M 249.535156 529.324219 L 269.027344 535.816406 C 275.054688 563.949219 275.054688 585.597656 269.027344 613.730469 L 256.035156 600.746094 C 253.34375 583.851562 253.34375 583.851562 251.972656 564.222656 L 250.5 544.484375 Z M 249.535156 529.324219 "/><path style=" stroke:none;fill-rule:nonzero;fill:#91c012;fill-opacity:1;" d="M 249.535156 561.789062 L 256.035156 561.789062 C 259.5625 581.300781 262.296875 600.375 262.53125 620.222656 C 253.597656 640.113281 253.597656 640.113281 243.039062 652.6875 L 236.542969 652.6875 L 236.542969 594.253906 L 243.039062 594.253906 Z M 249.535156 561.789062 "/><path style=" stroke:none;fill-rule:nonzero;fill:#28aaff;fill-opacity:1;" d="M 223.550781 438.421875 L 256.035156 444.914062 L 256.035156 457.902344 L 243.039062 457.902344 L 249.535156 490.367188 L 230.046875 490.367188 C 223.148438 479.003906 223.148438 479.003906 217.050781 464.394531 C 219.488281 449.785156 219.488281 449.785156 223.550781 438.421875 "/><path style=" stroke:none;fill-rule:nonzero;fill:#c60482;fill-opacity:1;" d="M 301.511719 529.324219 C 319.683594 562.015625 321.8125 591.765625 321.410156 628.75 L 321.230469 649.773438 L 321 665.675781 C 308.007812 646.195312 308.007812 646.195312 305.933594 633.253906 L 305.316406 618.730469 L 304.558594 602.941406 L 303.945312 586.546875 L 303.1875 569.917969 C 302.585938 556.386719 302.027344 542.855469 301.511719 529.324219 "/><path style=" stroke:none;fill-rule:nonzero;fill:#e60066;fill-opacity:1;" d="M 587.371094 548.800781 L 593.867188 561.789062 L 606.859375 561.789062 L 606.859375 548.800781 L 619.855469 548.800781 L 626.351562 600.746094 L 606.859375 594.253906 L 606.859375 574.773438 L 580.871094 568.28125 Z M 587.371094 548.800781 "/><path style=" stroke:none;fill-rule:nonzero;fill:#28aaff;fill-opacity:1;" d="M 269.027344 698.140625 C 282.019531 717.617188 282.019531 717.617188 283.289062 732.304688 L 282.832031 748.050781 L 282.476562 763.957031 L 282.019531 776.054688 L 301.511719 782.546875 L 295.015625 802.023438 C 285.546875 795 285.546875 795 275.523438 782.546875 C 272.199219 762.179688 272.199219 762.179688 271.058594 739.128906 L 269.761719 715.917969 Z M 269.027344 698.140625 "/><path style=" stroke:none;fill-rule:nonzero;fill:#7e3ee5;fill-opacity:1;" d="M 295.015625 542.308594 L 301.511719 542.308594 C 308.847656 577.117188 308.636719 610.828125 308.007812 646.195312 L 301.511719 646.195312 C 299.152344 633.761719 296.851562 621.316406 294.613281 608.863281 L 290.726562 587.863281 C 288.699219 569.917969 289.167969 559.132812 295.015625 542.308594 "/><path style=" stroke:none;fill-rule:nonzero;fill:#ff2c9a;fill-opacity:1;" d="M 554.886719 477.378906 C 570.316406 479.003906 570.316406 479.003906 587.371094 483.875 C 595.898438 497.269531 595.898438 497.269531 600.363281 509.84375 L 554.886719 496.859375 Z M 554.886719 477.378906 "/><path style=" stroke:none;fill-rule:nonzero;fill:#8ccfff;fill-opacity:1;" d="M 321 496.859375 L 308.007812 529.324219 L 295.015625 522.832031 L 295.015625 503.351562 L 256.035156 503.351562 L 256.035156 496.859375 C 280.039062 490.691406 296.996094 490.691406 321 496.859375 "/><path style=" stroke:none;fill-rule:nonzero;fill:#1d075a;fill-opacity:1;" d="M 152.085938 438.421875 L 184.570312 444.914062 L 171.574219 464.394531 C 158.9375 466.296875 158.9375 466.296875 144.777344 465.613281 L 119.601562 464.394531 L 113.105469 451.410156 L 152.085938 457.902344 Z M 152.085938 438.421875 "/><path style=" stroke:none;fill-rule:nonzero;fill:#91c012;fill-opacity:1;" d="M 230.046875 516.335938 L 243.039062 516.335938 L 249.535156 561.789062 L 236.542969 561.789062 Z M 230.046875 516.335938 "/><path style=" stroke:none;fill-rule:nonzero;fill:#e60066;fill-opacity:1;" d="M 340.492188 470.886719 C 340.492188 491.691406 335.664062 503.960938 327.5 522.832031 L 314.503906 516.335938 C 321.480469 497.410156 326.054688 485.316406 340.492188 470.886719 "/><path style=" stroke:none;fill-rule:nonzero;fill:#28aaff;fill-opacity:1;" d="M 256.035156 620.222656 L 275.523438 620.222656 L 282.019531 646.195312 L 269.027344 646.195312 L 262.53125 659.179688 Z M 301.511719 431.929688 L 314.503906 431.929688 C 312.476562 444.511719 312.476562 444.511719 308.007812 457.902344 L 288.515625 464.394531 C 290.492188 455.695312 292.65625 447.035156 295.015625 438.421875 Z M 301.511719 431.929688 "/><path style=" stroke:none;fill-rule:nonzero;fill:#e60066;fill-opacity:1;" d="M 535.394531 496.859375 L 561.382812 503.351562 L 561.382812 516.335938 L 535.394531 522.832031 Z M 535.394531 496.859375 "/><path style=" stroke:none;fill-rule:nonzero;fill:#28aaff;fill-opacity:1;" d="M 243.039062 496.859375 L 256.035156 496.859375 L 256.035156 529.324219 L 243.039062 529.324219 C 239.386719 516.746094 239.386719 516.746094 236.542969 503.351562 Z M 243.039062 496.859375 "/><path style=" stroke:none;fill-rule:nonzero;fill:#e60066;fill-opacity:1;" d="M 574.375 503.351562 L 606.859375 509.84375 L 600.363281 529.324219 Z M 574.375 503.351562 "/><path style=" stroke:none;fill-rule:nonzero;fill:#c60482;fill-opacity:1;" d="M 509.410156 496.859375 L 502.910156 529.324219 L 489.917969 522.832031 L 496.414062 509.84375 L 483.421875 503.351562 C 496.414062 496.859375 496.414062 496.859375 509.410156 496.859375 "/><path style=" stroke:none;fill-rule:nonzero;fill:#ff2c9a;fill-opacity:1;" d="M 580.871094 483.875 L 600.363281 496.859375 L 600.363281 509.84375 L 567.878906 503.351562 L 580.871094 496.859375 Z M 580.871094 483.875 "/><path style=" stroke:none;fill-rule:nonzero;fill:#28aaff;fill-opacity:1;" d="M 282.019531 776.054688 L 301.511719 782.546875 L 295.015625 802.023438 L 282.019531 795.53125 Z M 243.039062 457.902344 L 262.53125 464.394531 L 256.035156 483.875 L 243.039062 483.875 Z M 243.039062 457.902344 "/></g></svg>